<svg xmlns="http://www.w3.org/2000/svg" viewBox="0 0 1140 560" font-family="ui-monospace, SFMono-Regular, Menlo, monospace">
<rect width="1140" height="560" fill="#fdfdfb"/>
<text x="34" y="38" font-size="21" font-weight="bold" fill="#1a1a1a">ER-TFTM070-4V2.1 ⇄ Raspberry Pi Zero W — 16-bit 8080, 24 wires</text>
<text x="34" y="58" font-size="12" fill="#555">Every pin shown. Grey = unused. Each wire has its own colour; signal names are labelled at both ends.</text>
<rect x="48" y="70" width="282" height="428" rx="6" fill="#ffffff" stroke="#444" stroke-width="1.5"/>
<text x="74" y="88" font-size="13" font-weight="bold" fill="#333">Pi header (physical)</text>
<rect x="690" y="70" width="282" height="428" rx="6" fill="#ffffff" stroke="#444" stroke-width="1.5"/>
<text x="716" y="88" font-size="13" font-weight="bold" fill="#333">Display FPC (datasheet pin)</text>
<circle cx="150" cy="84" r="7.5" fill="#e6e6e6"/>
<text x="150" y="87.5" font-size="9.5" text-anchor="middle" fill="#b0b0b0">1</text>
<text x="50" y="87.5" font-size="11" fill="#c0c0c0">—</text>
<circle cx="300" cy="84" r="7.5" fill="#e6e6e6"/>
<text x="300" y="87.5" font-size="9.5" text-anchor="middle" fill="#b0b0b0">2</text>
<text x="50" y="87.5" font-size="11" fill="#c0c0c0">—</text>
<circle cx="150" cy="105" r="7.5" fill="#e6e6e6"/>
<text x="150" y="108.5" font-size="9.5" text-anchor="middle" fill="#b0b0b0">3</text>
<text x="50" y="108.5" font-size="11" fill="#c0c0c0">—</text>
<circle cx="300" cy="105" r="7.5" fill="#e6e6e6"/>
<text x="300" y="108.5" font-size="9.5" text-anchor="middle" fill="#b0b0b0">4</text>
<text x="50" y="108.5" font-size="11" fill="#c0c0c0">—</text>
<circle cx="150" cy="126" r="7.5" fill="#e6e6e6"/>
<text x="150" y="129.5" font-size="9.5" text-anchor="middle" fill="#b0b0b0">5</text>
<text x="50" y="129.5" font-size="11" fill="#c0c0c0">—</text>
<circle cx="300" cy="126" r="7.5" fill="#e6e6e6"/>
<text x="300" y="129.5" font-size="9.5" text-anchor="middle" fill="#b0b0b0">6</text>
<text x="50" y="129.5" font-size="11" fill="#c0c0c0">—</text>
<circle cx="150" cy="147" r="7.5" fill="#e6e6e6"/>
<text x="150" y="150.5" font-size="9.5" text-anchor="middle" fill="#b0b0b0">7</text>
<text x="50" y="150.5" font-size="11" fill="#c0c0c0">—</text>
<circle cx="300" cy="147" r="7.5" fill="#e6e6e6"/>
<text x="300" y="150.5" font-size="9.5" text-anchor="middle" fill="#b0b0b0">8</text>
<text x="50" y="150.5" font-size="11" fill="#c0c0c0">—</text>
<circle cx="150" cy="168" r="7.5" fill="#e6e6e6"/>
<text x="150" y="171.5" font-size="9.5" text-anchor="middle" fill="#b0b0b0">9</text>
<text x="50" y="171.5" font-size="11" fill="#c0c0c0">—</text>
<circle cx="300" cy="168" r="7.5" fill="#e6e6e6"/>
<text x="300" y="171.5" font-size="9.5" text-anchor="middle" fill="#b0b0b0">10</text>
<text x="50" y="171.5" font-size="11" fill="#c0c0c0">—</text>
<circle cx="150" cy="189" r="7.5" fill="#e6e6e6"/>
<text x="150" y="192.5" font-size="9.5" text-anchor="middle" fill="#b0b0b0">11</text>
<text x="50" y="192.5" font-size="11" fill="#c0c0c0">—</text>
<circle cx="300" cy="189" r="7.5" fill="#e6e6e6"/>
<text x="300" y="192.5" font-size="9.5" text-anchor="middle" fill="#b0b0b0">12</text>
<text x="50" y="192.5" font-size="11" fill="#c0c0c0">—</text>
<circle cx="150" cy="210" r="7.5" fill="#e6e6e6"/>
<text x="150" y="213.5" font-size="9.5" text-anchor="middle" fill="#b0b0b0">13</text>
<text x="50" y="213.5" font-size="11" fill="#c0c0c0">—</text>
<circle cx="300" cy="210" r="7.5" fill="#e6e6e6"/>
<text x="300" y="213.5" font-size="9.5" text-anchor="middle" fill="#b0b0b0">14</text>
<text x="50" y="213.5" font-size="11" fill="#c0c0c0">—</text>
<circle cx="150" cy="231" r="7.5" fill="#e6e6e6"/>
<text x="150" y="234.5" font-size="9.5" text-anchor="middle" fill="#b0b0b0">15</text>
<text x="50" y="234.5" font-size="11" fill="#c0c0c0">—</text>
<circle cx="300" cy="231" r="7.5" fill="#e6e6e6"/>
<text x="300" y="234.5" font-size="9.5" text-anchor="middle" fill="#b0b0b0">16</text>
<text x="50" y="234.5" font-size="11" fill="#c0c0c0">—</text>
<circle cx="150" cy="252" r="7.5" fill="#e6e6e6"/>
<text x="150" y="255.5" font-size="9.5" text-anchor="middle" fill="#b0b0b0">17</text>
<text x="50" y="255.5" font-size="11" fill="#c0c0c0">—</text>
<circle cx="300" cy="252" r="7.5" fill="#e6e6e6"/>
<text x="300" y="255.5" font-size="9.5" text-anchor="middle" fill="#b0b0b0">18</text>
<text x="50" y="255.5" font-size="11" fill="#c0c0c0">—</text>
<circle cx="150" cy="273" r="7.5" fill="#e6e6e6"/>
<text x="150" y="276.5" font-size="9.5" text-anchor="middle" fill="#b0b0b0">19</text>
<text x="50" y="276.5" font-size="11" fill="#c0c0c0">—</text>
<circle cx="300" cy="273" r="7.5" fill="#e6e6e6"/>
<text x="300" y="276.5" font-size="9.5" text-anchor="middle" fill="#b0b0b0">20</text>
<text x="50" y="276.5" font-size="11" fill="#c0c0c0">—</text>
<circle cx="150" cy="294" r="7.5" fill="#e6e6e6"/>
<text x="150" y="297.5" font-size="9.5" text-anchor="middle" fill="#b0b0b0">21</text>
<text x="50" y="297.5" font-size="11" fill="#c0c0c0">—</text>
<circle cx="300" cy="294" r="7.5" fill="#e6e6e6"/>
<text x="300" y="297.5" font-size="9.5" text-anchor="middle" fill="#b0b0b0">22</text>
<text x="50" y="297.5" font-size="11" fill="#c0c0c0">—</text>
<circle cx="150" cy="315" r="7.5" fill="#e6e6e6"/>
<text x="150" y="318.5" font-size="9.5" text-anchor="middle" fill="#b0b0b0">23</text>
<text x="50" y="318.5" font-size="11" fill="#c0c0c0">—</text>
<circle cx="300" cy="315" r="7.5" fill="#e6e6e6"/>
<text x="300" y="318.5" font-size="9.5" text-anchor="middle" fill="#b0b0b0">24</text>
<text x="50" y="318.5" font-size="11" fill="#c0c0c0">—</text>
<circle cx="150" cy="336" r="7.5" fill="#e6e6e6"/>
<text x="150" y="339.5" font-size="9.5" text-anchor="middle" fill="#b0b0b0">25</text>
<text x="50" y="339.5" font-size="11" fill="#c0c0c0">—</text>
<circle cx="300" cy="336" r="7.5" fill="#e6e6e6"/>
<text x="300" y="339.5" font-size="9.5" text-anchor="middle" fill="#b0b0b0">26</text>
<text x="50" y="339.5" font-size="11" fill="#c0c0c0">—</text>
<circle cx="150" cy="357" r="7.5" fill="#e6e6e6"/>
<text x="150" y="360.5" font-size="9.5" text-anchor="middle" fill="#b0b0b0">27</text>
<text x="50" y="360.5" font-size="11" fill="#c0c0c0">—</text>
<circle cx="300" cy="357" r="7.5" fill="#e6e6e6"/>
<text x="300" y="360.5" font-size="9.5" text-anchor="middle" fill="#b0b0b0">28</text>
<text x="50" y="360.5" font-size="11" fill="#c0c0c0">—</text>
<circle cx="150" cy="378" r="7.5" fill="#e6e6e6"/>
<text x="150" y="381.5" font-size="9.5" text-anchor="middle" fill="#b0b0b0">29</text>
<text x="50" y="381.5" font-size="11" fill="#c0c0c0">—</text>
<circle cx="300" cy="378" r="7.5" fill="#e6e6e6"/>
<text x="300" y="381.5" font-size="9.5" text-anchor="middle" fill="#b0b0b0">30</text>
<text x="50" y="381.5" font-size="11" fill="#c0c0c0">—</text>
<circle cx="150" cy="399" r="7.5" fill="#e6e6e6"/>
<text x="150" y="402.5" font-size="9.5" text-anchor="middle" fill="#b0b0b0">31</text>
<text x="50" y="402.5" font-size="11" fill="#c0c0c0">—</text>
<circle cx="300" cy="399" r="7.5" fill="#e6e6e6"/>
<text x="300" y="402.5" font-size="9.5" text-anchor="middle" fill="#b0b0b0">32</text>
<text x="50" y="402.5" font-size="11" fill="#c0c0c0">—</text>
<circle cx="150" cy="420" r="7.5" fill="#e6e6e6"/>
<text x="150" y="423.5" font-size="9.5" text-anchor="middle" fill="#b0b0b0">33</text>
<text x="50" y="423.5" font-size="11" fill="#c0c0c0">—</text>
<circle cx="300" cy="420" r="7.5" fill="#e6e6e6"/>
<text x="300" y="423.5" font-size="9.5" text-anchor="middle" fill="#b0b0b0">34</text>
<text x="50" y="423.5" font-size="11" fill="#c0c0c0">—</text>
<circle cx="150" cy="441" r="7.5" fill="#e6e6e6"/>
<text x="150" y="444.5" font-size="9.5" text-anchor="middle" fill="#b0b0b0">35</text>
<text x="50" y="444.5" font-size="11" fill="#c0c0c0">—</text>
<circle cx="300" cy="441" r="7.5" fill="#e6e6e6"/>
<text x="300" y="444.5" font-size="9.5" text-anchor="middle" fill="#b0b0b0">36</text>
<text x="50" y="444.5" font-size="11" fill="#c0c0c0">—</text>
<circle cx="150" cy="462" r="7.5" fill="#e6e6e6"/>
<text x="150" y="465.5" font-size="9.5" text-anchor="middle" fill="#b0b0b0">37</text>
<text x="50" y="465.5" font-size="11" fill="#c0c0c0">—</text>
<circle cx="300" cy="462" r="7.5" fill="#e6e6e6"/>
<text x="300" y="465.5" font-size="9.5" text-anchor="middle" fill="#b0b0b0">38</text>
<text x="50" y="465.5" font-size="11" fill="#c0c0c0">—</text>
<circle cx="150" cy="483" r="7.5" fill="#e6e6e6"/>
<text x="150" y="486.5" font-size="9.5" text-anchor="middle" fill="#b0b0b0">39</text>
<text x="50" y="486.5" font-size="11" fill="#c0c0c0">—</text>
<circle cx="300" cy="483" r="7.5" fill="#e6e6e6"/>
<text x="300" y="486.5" font-size="9.5" text-anchor="middle" fill="#b0b0b0">40</text>
<text x="50" y="486.5" font-size="11" fill="#c0c0c0">—</text>
<circle cx="760" cy="84" r="7.5" fill="#333"/>
<text x="760" y="87.5" font-size="9.5" text-anchor="middle" fill="#111">1</text>
<text x="986" y="87.5" font-size="11" fill="#0c379e">VSS</text>
<circle cx="760" cy="105" r="7.5" fill="#333"/>
<text x="760" y="108.5" font-size="9.5" text-anchor="middle" fill="#111">2</text>
<text x="986" y="108.5" font-size="11" fill="#9e0c0c">VDD</text>
<circle cx="760" cy="126" r="7.5" fill="#333"/>
<text x="760" y="129.5" font-size="9.5" text-anchor="middle" fill="#111">3</text>
<text x="986" y="129.5" font-size="11" fill="#619e0c">/CS</text>
<circle cx="760" cy="147" r="7.5" fill="#333"/>
<text x="760" y="150.5" font-size="9.5" text-anchor="middle" fill="#111">4</text>
<text x="986" y="150.5" font-size="11" fill="#9e0c8b">D/C</text>
<circle cx="760" cy="168" r="7.5" fill="#333"/>
<text x="760" y="171.5" font-size="9.5" text-anchor="middle" fill="#111">5</text>
<text x="986" y="171.5" font-size="11" fill="#0c9e85">E_/RD</text>
<circle cx="760" cy="189" r="7.5" fill="#333"/>
<text x="760" y="192.5" font-size="9.5" text-anchor="middle" fill="#111">6</text>
<text x="986" y="192.5" font-size="11" fill="#9e5b0c">R/W_/WR</text>
<circle cx="760" cy="210" r="7.5" fill="#333"/>
<text x="760" y="213.5" font-size="9.5" text-anchor="middle" fill="#111">7</text>
<text x="986" y="213.5" font-size="11" fill="#300c9e">RESET</text>
<circle cx="760" cy="231" r="7.5" fill="#e6e6e6"/>
<text x="760" y="234.5" font-size="9.5" text-anchor="middle" fill="#b0b0b0">8</text>
<text x="986" y="234.5" font-size="11" fill="#c0c0c0">—</text>
<circle cx="760" cy="252" r="7.5" fill="#333"/>
<text x="760" y="255.5" font-size="9.5" text-anchor="middle" fill="#111">9</text>
<text x="986" y="255.5" font-size="11" fill="#129e0c">DB0</text>
<circle cx="760" cy="273" r="7.5" fill="#333"/>
<text x="760" y="276.5" font-size="9.5" text-anchor="middle" fill="#111">10</text>
<text x="986" y="276.5" font-size="11" fill="#9e0c3d">DB1</text>
<circle cx="760" cy="294" r="7.5" fill="#333"/>
<text x="760" y="297.5" font-size="9.5" text-anchor="middle" fill="#111">11</text>
<text x="986" y="297.5" font-size="11" fill="#0c679e">DB2</text>
<circle cx="760" cy="315" r="7.5" fill="#333"/>
<text x="760" y="318.5" font-size="9.5" text-anchor="middle" fill="#111">12</text>
<text x="986" y="318.5" font-size="11" fill="#929e0c">DB3</text>
<circle cx="760" cy="336" r="7.5" fill="#333"/>
<text x="760" y="339.5" font-size="9.5" text-anchor="middle" fill="#111">13</text>
<text x="986" y="339.5" font-size="11" fill="#7f0c9e">DB4</text>
<circle cx="760" cy="357" r="7.5" fill="#333"/>
<text x="760" y="360.5" font-size="9.5" text-anchor="middle" fill="#111">14</text>
<text x="986" y="360.5" font-size="11" fill="#0c9e55">DB5</text>
<circle cx="760" cy="378" r="7.5" fill="#333"/>
<text x="760" y="381.5" font-size="9.5" text-anchor="middle" fill="#111">15</text>
<text x="986" y="381.5" font-size="11" fill="#9e2a0c">DB6</text>
<circle cx="760" cy="399" r="7.5" fill="#333"/>
<text x="760" y="402.5" font-size="9.5" text-anchor="middle" fill="#111">16</text>
<text x="986" y="402.5" font-size="11" fill="#0c199e">DB7</text>
<circle cx="760" cy="420" r="7.5" fill="#333"/>
<text x="760" y="423.5" font-size="9.5" text-anchor="middle" fill="#111">17</text>
<text x="986" y="423.5" font-size="11" fill="#439e0c">DB8</text>
<circle cx="760" cy="441" r="7.5" fill="#333"/>
<text x="760" y="444.5" font-size="9.5" text-anchor="middle" fill="#111">18</text>
<text x="986" y="444.5" font-size="11" fill="#9e0c6d">DB9</text>
<circle cx="760" cy="462" r="7.5" fill="#333"/>
<text x="760" y="465.5" font-size="9.5" text-anchor="middle" fill="#111">19</text>
<text x="986" y="465.5" font-size="11" fill="#0c989e">DB10</text>
<circle cx="760" cy="483" r="7.5" fill="#333"/>
<text x="760" y="486.5" font-size="9.5" text-anchor="middle" fill="#111">20</text>
<text x="986" y="486.5" font-size="11" fill="#9e790c">DB11</text>
<circle cx="910" cy="84" r="7.5" fill="#333"/>
<text x="910" y="87.5" font-size="9.5" text-anchor="middle" fill="#111">21</text>
<text x="986" y="87.5" font-size="11" fill="#4e0c9e">DB12</text>
<circle cx="910" cy="105" r="7.5" fill="#333"/>
<text x="910" y="108.5" font-size="9.5" text-anchor="middle" fill="#111">22</text>
<text x="986" y="108.5" font-size="11" fill="#0c9e24">DB13</text>
<circle cx="910" cy="126" r="7.5" fill="#333"/>
<text x="910" y="129.5" font-size="9.5" text-anchor="middle" fill="#111">23</text>
<text x="986" y="129.5" font-size="11" fill="#9e0c1f">DB14</text>
<circle cx="910" cy="147" r="7.5" fill="#333"/>
<text x="910" y="150.5" font-size="9.5" text-anchor="middle" fill="#111">24</text>
<text x="986" y="150.5" font-size="11" fill="#0c499e">DB15</text>
<circle cx="910" cy="168" r="7.5" fill="#e6e6e6"/>
<text x="910" y="171.5" font-size="9.5" text-anchor="middle" fill="#b0b0b0">25</text>
<text x="986" y="171.5" font-size="11" fill="#c0c0c0">—</text>
<circle cx="910" cy="189" r="7.5" fill="#e6e6e6"/>
<text x="910" y="192.5" font-size="9.5" text-anchor="middle" fill="#b0b0b0">26</text>
<text x="986" y="192.5" font-size="11" fill="#c0c0c0">—</text>
<circle cx="910" cy="210" r="7.5" fill="#e6e6e6"/>
<text x="910" y="213.5" font-size="9.5" text-anchor="middle" fill="#b0b0b0">27</text>
<text x="986" y="213.5" font-size="11" fill="#c0c0c0">—</text>
<circle cx="910" cy="231" r="7.5" fill="#e6e6e6"/>
<text x="910" y="234.5" font-size="9.5" text-anchor="middle" fill="#b0b0b0">28</text>
<text x="986" y="234.5" font-size="11" fill="#c0c0c0">—</text>
<circle cx="910" cy="252" r="7.5" fill="#e6e6e6"/>
<text x="910" y="255.5" font-size="9.5" text-anchor="middle" fill="#b0b0b0">29</text>
<text x="986" y="255.5" font-size="11" fill="#c0c0c0">—</text>
<circle cx="910" cy="273" r="7.5" fill="#e6e6e6"/>
<text x="910" y="276.5" font-size="9.5" text-anchor="middle" fill="#b0b0b0">30</text>
<text x="986" y="276.5" font-size="11" fill="#c0c0c0">—</text>
<circle cx="910" cy="294" r="7.5" fill="#e6e6e6"/>
<text x="910" y="297.5" font-size="9.5" text-anchor="middle" fill="#b0b0b0">31</text>
<text x="986" y="297.5" font-size="11" fill="#c0c0c0">—</text>
<circle cx="910" cy="315" r="7.5" fill="#e6e6e6"/>
<text x="910" y="318.5" font-size="9.5" text-anchor="middle" fill="#b0b0b0">32</text>
<text x="986" y="318.5" font-size="11" fill="#c0c0c0">—</text>
<circle cx="910" cy="336" r="7.5" fill="#e6e6e6"/>
<text x="910" y="339.5" font-size="9.5" text-anchor="middle" fill="#b0b0b0">33</text>
<text x="986" y="339.5" font-size="11" fill="#c0c0c0">—</text>
<circle cx="910" cy="357" r="7.5" fill="#e6e6e6"/>
<text x="910" y="360.5" font-size="9.5" text-anchor="middle" fill="#b0b0b0">34</text>
<text x="986" y="360.5" font-size="11" fill="#c0c0c0">—</text>
<circle cx="910" cy="378" r="7.5" fill="#e6e6e6"/>
<text x="910" y="381.5" font-size="9.5" text-anchor="middle" fill="#b0b0b0">35</text>
<text x="986" y="381.5" font-size="11" fill="#c0c0c0">—</text>
<circle cx="910" cy="399" r="7.5" fill="#e6e6e6"/>
<text x="910" y="402.5" font-size="9.5" text-anchor="middle" fill="#b0b0b0">36</text>
<text x="986" y="402.5" font-size="11" fill="#c0c0c0">—</text>
<circle cx="910" cy="420" r="7.5" fill="#e6e6e6"/>
<text x="910" y="423.5" font-size="9.5" text-anchor="middle" fill="#b0b0b0">37</text>
<text x="986" y="423.5" font-size="11" fill="#c0c0c0">—</text>
<circle cx="910" cy="441" r="7.5" fill="#e6e6e6"/>
<text x="910" y="444.5" font-size="9.5" text-anchor="middle" fill="#b0b0b0">38</text>
<text x="986" y="444.5" font-size="11" fill="#c0c0c0">—</text>
<circle cx="910" cy="462" r="7.5" fill="#333"/>
<text x="910" y="465.5" font-size="9.5" text-anchor="middle" fill="#111">39</text>
<text x="986" y="465.5" font-size="11" fill="#749e0c">BL ON/OFF</text>
<circle cx="910" cy="483" r="7.5" fill="#e6e6e6"/>
<text x="910" y="486.5" font-size="9.5" text-anchor="middle" fill="#b0b0b0">40</text>
<text x="986" y="486.5" font-size="11" fill="#c0c0c0">—</text>
<path d="M 307.5 84 C 490.0 84, 570.0 105, 752.5 105" fill="none" stroke="#9e0c0c" stroke-width="1.7"/>
<path d="M 307.5 126 C 476.0 126, 584.0 84, 752.5 84" fill="none" stroke="#0c379e" stroke-width="1.7"/>
<path d="M 157.5 462 C 387.0 462, 523.0 126, 752.5 126" fill="none" stroke="#619e0c" stroke-width="1.7"/>
<path d="M 307.5 462 C 448.0 462, 612.0 147, 752.5 147" fill="none" stroke="#9e0c8b" stroke-width="1.7"/>
<path d="M 307.5 441 C 434.0 441, 626.0 168, 752.5 168" fill="none" stroke="#0c9e85" stroke-width="1.7"/>
<path d="M 307.5 483 C 490.0 483, 570.0 189, 752.5 189" fill="none" stroke="#9e5b0c" stroke-width="1.7"/>
<path d="M 307.5 399 C 476.0 399, 584.0 210, 752.5 210" fill="none" stroke="#300c9e" stroke-width="1.7"/>
<path d="M 157.5 147 C 387.0 147, 523.0 252, 752.5 252" fill="none" stroke="#129e0c" stroke-width="1.7"/>
<path d="M 157.5 189 C 373.0 189, 537.0 273, 752.5 273" fill="none" stroke="#9e0c3d" stroke-width="1.7"/>
<path d="M 157.5 210 C 359.0 210, 551.0 294, 752.5 294" fill="none" stroke="#0c679e" stroke-width="1.7"/>
<path d="M 157.5 231 C 415.0 231, 495.0 315, 752.5 315" fill="none" stroke="#929e0c" stroke-width="1.7"/>
<path d="M 157.5 378 C 401.0 378, 509.0 336, 752.5 336" fill="none" stroke="#7f0c9e" stroke-width="1.7"/>
<path d="M 157.5 399 C 387.0 399, 523.0 357, 752.5 357" fill="none" stroke="#0c9e55" stroke-width="1.7"/>
<path d="M 157.5 420 C 373.0 420, 537.0 378, 752.5 378" fill="none" stroke="#9e2a0c" stroke-width="1.7"/>
<path d="M 157.5 441 C 359.0 441, 551.0 399, 752.5 399" fill="none" stroke="#0c199e" stroke-width="1.7"/>
<path d="M 307.5 336 C 490.0 336, 570.0 420, 752.5 420" fill="none" stroke="#439e0c" stroke-width="1.7"/>
<path d="M 307.5 315 C 476.0 315, 584.0 441, 752.5 441" fill="none" stroke="#9e0c6d" stroke-width="1.7"/>
<path d="M 157.5 294 C 387.0 294, 523.0 462, 752.5 462" fill="none" stroke="#0c989e" stroke-width="1.7"/>
<path d="M 157.5 273 C 373.0 273, 537.0 483, 752.5 483" fill="none" stroke="#9e790c" stroke-width="1.7"/>
<path d="M 157.5 315 C 434.0 315, 626.0 84, 902.5 84" fill="none" stroke="#4e0c9e" stroke-width="1.7"/>
<path d="M 307.5 189 C 565.0 189, 645.0 105, 902.5 105" fill="none" stroke="#0c9e24" stroke-width="1.7"/>
<path d="M 307.5 231 C 551.0 231, 659.0 126, 902.5 126" fill="none" stroke="#9e0c1f" stroke-width="1.7"/>
<path d="M 307.5 252 C 537.0 252, 673.0 147, 902.5 147" fill="none" stroke="#0c499e" stroke-width="1.7"/>
<path d="M 307.5 294 C 523.0 294, 687.0 462, 902.5 462" fill="none" stroke="#749e0c" stroke-width="1.7"/>
<text x="34" y="548" font-size="11" fill="#777">24 wires · every pin on both connectors is drawn; grey pins are unused (display TE, DB16–DB23, touch; Pi SPI/I²C/3.3V/etc.)</text>
</svg>